<svg width="1200" height="800" viewBox="0 0 1200 800" fill="none" xmlns="http://www.w3.org/2000/svg">
  <rect width="1200" height="800" rx="32" fill="#F8FAFC"/>
  <rect x="80" y="80" width="1040" height="640" rx="28" fill="white"/>
  <rect x="120" y="124" width="240" height="32" rx="10" fill="#0F172A"/>
  <rect x="120" y="184" width="170" height="44" rx="16" fill="#2563EB"/>
  <rect x="310" y="184" width="160" height="44" rx="16" fill="#E2E8F0"/>
  <rect x="120" y="274" width="286" height="366" rx="22" fill="#F8FAFC"/>
  <rect x="436" y="274" width="286" height="366" rx="22" fill="#F8FAFC"/>
  <rect x="752" y="274" width="286" height="366" rx="22" fill="#F8FAFC"/>
  <rect x="152" y="314" width="100" height="16" rx="8" fill="#2563EB"/>
  <rect x="468" y="314" width="120" height="16" rx="8" fill="#0F172A"/>
  <rect x="784" y="314" width="110" height="16" rx="8" fill="#1D4ED8"/>
  <rect x="152" y="362" width="220" height="82" rx="18" fill="#DBEAFE"/>
  <rect x="468" y="362" width="220" height="82" rx="18" fill="#E2E8F0"/>
  <rect x="784" y="362" width="220" height="82" rx="18" fill="#BFDBFE"/>
  <rect x="152" y="470" width="220" height="82" rx="18" fill="#E2E8F0"/>
  <rect x="468" y="470" width="220" height="82" rx="18" fill="#DBEAFE"/>
  <rect x="784" y="470" width="220" height="82" rx="18" fill="#E2E8F0"/>
  <text x="120" y="688" fill="#0F172A" font-family="Arial, Helvetica, sans-serif" font-size="48" font-weight="700">Task Management App</text>
  <text x="120" y="736" fill="#475569" font-family="Arial, Helvetica, sans-serif" font-size="28">Filtering, due dates, and local storage with a clean UI.</text>
</svg>
